PathFileType	4	(X/Y/Z)	c:/Users/goper/Files/vsCode/490R/osim_files/C05/C05_Fast_03.trc
DataRate	CameraRate	NumFrames	NumMarkers	Units                	OrigDataRate	OrigDataStartFrame	OrigNumFrames
250.00	250.00	6	36	mm	250.0	2494	3324
                Frame#	Time	LPSIS			LASIS			LTH1			LTH2			LTH3			LTH4			LLFE			LMFE			LSH1			LSH2			LSH3			LSH4			LLMAL			LMMAL			LCAL			LMTP5			LTOE			LMTP1			RPSIS			RASIS			RTH1			RTH2			RTH3			RTH4			RLFE			RMFE			RSH1			RSH2			RSH3			RSH4			RLMAL			RMMAL			RCAL			RMTP1			RTOE			RMTP5		
		X1	Y1	Z1	X2	Y2	Z2	X3	Y3	Z3	X4	Y4	Z4	X5	Y5	Z5	X6	Y6	Z6	X7	Y7	Z7	X8	Y8	Z8	X9	Y9	Z9	X10	Y10	Z10	X11	Y11	Z11	X12	Y12	Z12	X13	Y13	Z13	X14	Y14	Z14	X15	Y15	Z15	X16	Y16	Z16	X17	Y17	Z17	X18	Y18	Z18	X19	Y19	Z19	X20	Y20	Z20	X21	Y21	Z21	X22	Y22	Z22	X23	Y23	Z23	X24	Y24	Z24	X25	Y25	Z25	X26	Y26	Z26	X27	Y27	Z27	X28	Y28	Z28	X29	Y29	Z29	X30	Y30	Z30	X31	Y31	Z31	X32	Y32	Z32	X33	Y33	Z33	X34	Y34	Z34	X35	Y35	Z35	X36	Y36	Z36

2494	9.97200	-2572.92041	1035.46826	304.21887	-2770.90942	999.40283	376.81998	-2680.98145	670.67883	409.80951	-2697.99658	609.97565	403.21957	-2757.50659	684.41736	422.05374	-2762.24170	622.35352	413.98282	-2749.13428	512.36066	401.65189	-2766.53540	499.10361	279.16870	-2576.77612	464.06821	400.89282	-2544.24878	435.70248	398.85510	-2611.46997	413.08224	419.50211	-2573.65503	392.84720	413.92313	-2374.15771	288.45822	381.00885	-2407.23999	263.12991	302.46622	-2325.84766	321.87958	321.98685	-2379.69312	137.58487	415.52423	-2424.70435	115.24496	360.10941	-2410.66064	117.72951	311.40298	-2584.37549	1051.03796	196.29913	-2784.63599	1022.94354	148.04045	-2756.76929	672.24890	98.79553	0.00000	0.00000	0.00000	-2828.03442	701.32623	105.47795	0.00000	0.00000	0.00000	0.00000	0.00000	0.00000	-2847.14722	546.64050	145.86700	-2766.89185	386.30142	125.41088	-2773.79810	337.60995	133.39120	-2830.35034	384.06241	134.23198	-2824.51709	337.07574	139.57953	-2774.02979	107.52629	180.50444	-2796.23828	120.58199	264.44449	-2710.75928	80.35269	230.52032	-2929.96216	53.82291	253.02095	-2948.42261	79.22433	204.51654	-2898.30908	48.97235	141.75517
2495	9.97600	-2577.91309	1036.47644	303.73325	-2775.42456	1000.39789	376.19000	-2690.20752	671.82452	408.36124	-2707.49902	611.22028	403.01291	-2767.93237	687.18591	421.69839	-2771.53369	624.22528	413.83948	-2760.13745	514.37756	401.29147	-2777.51758	500.94797	278.76520	-2588.31934	465.45358	400.14267	-2555.78564	436.93082	398.16650	-2623.13965	414.62619	419.09018	-2585.22290	394.23254	413.52783	-2385.99927	289.00894	380.67563	-2418.60547	263.75992	301.82956	-2337.45068	321.53983	321.53772	-2392.43579	138.30788	415.15781	-2438.56665	116.18156	360.56198	-2424.44165	118.18136	311.96909	-2589.12646	1052.04785	195.87404	-2789.74438	1023.81512	147.59222	-2760.19897	672.56305	98.09350	0.00000	0.00000	0.00000	-2831.58765	701.30792	105.08158	0.00000	0.00000	0.00000	0.00000	0.00000	0.00000	-2849.39404	546.36017	145.49007	-2768.73828	386.03162	124.60121	-2775.99609	337.99332	133.25497	-2832.16455	383.74100	134.10648	-2826.03955	336.76852	139.58894	-2774.17749	107.61027	180.50815	-2796.37964	120.68566	264.40155	-2710.82617	80.42891	230.52037	-2929.88721	53.75571	252.38966	-2949.00391	79.39977	204.82079	-2898.34937	48.94816	141.69922
2496	9.98000	-2582.56885	1037.65723	303.26859	-2780.76636	1001.73450	375.79822	-2698.71533	672.73584	408.96457	-2716.93506	612.49054	402.62103	-2776.73926	689.09076	421.51453	-2780.79883	626.16846	413.68964	-2771.00928	516.32721	400.61371	-2788.40405	502.92682	278.25818	-2599.92627	466.74390	399.42496	-2567.37769	438.06281	397.57584	-2634.69165	415.98175	418.68161	-2596.86694	395.45038	413.09686	-2398.31470	289.12277	380.37201	-2430.93726	263.95789	301.58142	-2349.47437	320.93765	321.28650	-2406.54810	138.88716	416.03229	-2452.59106	116.89260	361.14532	-2438.55176	118.55173	312.47028	-2594.68140	1053.00452	195.52321	-2794.87305	1024.62500	147.11548	-2763.55078	672.81818	97.41624	0.00000	0.00000	0.00000	-2834.99438	701.28937	104.66185	0.00000	0.00000	0.00000	0.00000	0.00000	0.00000	-2851.71606	546.10028	145.07881	-2770.71582	385.88873	123.99885	-2777.49268	337.76028	132.79634	-2833.92236	383.45651	134.06310	-2827.51099	336.42267	139.54012	-2774.45776	107.68356	180.44565	-2796.55664	120.77714	264.37057	-2710.92334	80.53770	230.49821	-2929.94824	53.71307	252.39000	-2948.55640	79.00915	204.43863	-2898.42383	48.93051	141.63441
2497	9.98400	-2588.25537	1038.40381	302.90146	-2785.97803	1003.00378	375.34933	-2707.83545	674.10657	407.69965	-2726.25562	613.81995	402.33279	-2785.18164	690.94092	421.31958	-2790.12695	628.19885	413.51779	-2781.63574	518.27277	400.64700	-2799.18848	504.98267	277.78491	-2611.39014	467.89026	398.76523	-2579.03076	439.13174	397.08224	-2646.51025	417.58301	418.22897	-2608.72534	396.79364	412.78918	-2410.23853	289.26328	380.14673	-2443.43726	263.94492	301.40704	-2360.89526	320.06073	320.39795	-2420.63525	139.20612	416.40924	-2466.86230	117.51222	361.55676	-2452.78735	118.76814	312.93637	-2599.40161	1053.89661	195.13460	-2799.91626	1025.38403	146.60606	-2766.82617	673.12720	96.71471	0.00000	0.00000	0.00000	-2838.31543	701.19348	104.21799	0.00000	0.00000	0.00000	0.00000	0.00000	0.00000	-2853.84033	545.82544	144.69844	-2772.66309	386.03876	123.28078	-2778.98462	337.61142	132.41411	-2835.45776	383.13373	133.88744	-2829.42017	337.05609	140.43976	-2774.61890	107.73838	180.43565	-2796.69604	120.84383	264.31125	-2710.96436	80.61824	230.48433	-2929.97559	53.65520	252.33749	-2948.67310	78.87387	204.41306	-2898.45239	48.86002	141.57640
2498	9.98800	-2593.51538	1039.42004	302.55295	-2791.91016	1004.54749	375.08948	-2716.55640	675.16638	407.27814	-2735.85327	615.72223	403.54709	-2793.81592	692.89728	421.10739	-2799.35571	630.22534	413.32544	-2792.44556	520.34601	400.26868	-2810.00220	507.17352	277.30023	-2622.75854	468.98331	398.16183	-2590.67017	440.16550	396.69876	-2658.13599	418.91821	417.82227	-2620.57764	397.92337	412.49609	-2422.56201	288.97375	379.93356	-2455.96533	263.67328	301.24915	-2372.96069	318.90607	320.54111	-2434.75098	139.24530	416.74405	-2481.30884	117.96984	361.95508	-2467.09570	118.73392	313.37094	-2604.93042	1054.76062	194.84338	-2804.94360	1026.13379	146.11877	-2769.94141	673.38110	96.03832	0.00000	0.00000	0.00000	-2841.52368	701.18750	103.71170	0.00000	0.00000	0.00000	0.00000	0.00000	0.00000	-2855.93604	545.49377	144.32156	-2774.12476	385.66479	123.05395	-2777.44482	338.38617	130.85889	-2836.93701	382.84698	133.74384	-2830.69385	336.76562	140.35945	-2774.70581	107.79471	180.39485	-2796.85889	120.92046	264.28241	-2710.96802	80.75029	230.43727	-2930.02490	53.62525	252.30986	-2948.69751	78.70905	204.33406	-2898.56299	48.85870	141.55141
2499	9.99200	-2598.71899	1040.38220	302.22409	-2796.32446	1005.46289	374.44717	-2724.97290	676.44989	408.05536	-2745.37207	617.30225	403.51859	-2802.37500	694.86127	420.93008	-2808.59131	632.36353	413.12521	-2802.88062	522.25439	399.79929	-2820.69092	509.33725	276.69440	-2633.99927	469.96512	397.56815	-2602.07446	440.90146	396.20532	-2669.74097	420.15079	417.36020	-2632.47852	399.08994	412.28528	-2434.91699	288.50232	379.66418	-2468.63257	263.37000	301.08008	-2384.82471	317.54120	320.28400	-2448.98950	138.97536	417.06628	-2495.93311	118.28506	362.26990	-2481.67261	118.60109	313.76196	-2609.90234	1055.67932	194.54059	-2809.84985	1026.75684	145.56714	-2772.88647	673.80396	95.35606	0.00000	0.00000	0.00000	-2844.59912	701.08118	103.22060	0.00000	0.00000	0.00000	0.00000	0.00000	0.00000	-2858.09521	545.25201	143.96138	-2775.56201	385.58105	122.60873	-2778.64893	337.99625	130.64281	-2838.26294	382.60925	133.57298	-2831.85254	336.55231	140.20590	-2774.89014	107.82031	180.39616	-2797.12671	120.88979	264.46484	-2711.05420	80.80888	230.42509	-2930.03955	53.52696	252.28310	-2948.71191	78.51575	204.31017	-2898.63428	48.80727	141.49278
